<?xml version="1.0" encoding="UTF-8"?>
<svg id="Layer_1" data-name="Layer 1" xmlns="http://www.w3.org/2000/svg" viewBox="0 0 468.97 143.41">
  <defs>
    <style>
      .cls-1 {
        fill: #d1ebf3;
      }

      .cls-2 {
        fill: #f1f2f2;
      }
    </style>
  </defs>
  <path class="cls-1" d="m56.98,104.15c1.22,4.23,4.28,6.29,8.43,6.71,5.14.52,9.55-1.07,12.2-5.73,2.13-3.73,2.21-7.77-.72-11.1-4.48-5.09-9.22-9.95-13.99-14.76-6.19-6.24-12.78-12.01-17-20.04-8.39-15.98,5.48-33.93,20.85-33.89,12.17.03,22.32,7.32,24.37,18.84.39,2.18.03,5.28,1.33,6.31,1.43,1.13,4.44,0,6.63.47,6.86,1.5,12.13,5.64,14.86,11.93,4.31,9.91,3.89,19.72-3.8,28.1-3.47,3.79-7.94,6.36-13.15,7.2-.6.1-1.81-.7-1.98-1.3-1.01-3.43-1.79-6.92-2.69-10.57,4.6-.82,9.2-2.52,11.05-8.15,2.56-7.81-2.32-14.74-10.51-14.75-4.46,0-8.92,0-13.8,0,0-4.19.23-8.19-.07-12.14-.28-3.72.07-7.76-3.57-10.47-4.07-3.04-8.37-3.78-12.99-1.63-4.04,1.88-6.72,5.62-6.47,9.56.23,3.52,2.43,7.43,4.88,10.18,5.6,6.27,12.04,11.78,17.85,17.88,4.98,5.23,10.55,10.09,12.22,17.73,2.89,13.27-5.46,25.78-18.77,28.85-13.36,3.08-26.93-7.14-28.19-18.73-.21-1.89-.68-3.75-1.1-5.96-7.82-.16-14.67-3.27-19.6-9.73-4.11-5.39-5.75-11.76-4.73-18.42,1.62-10.62,11.94-20.03,20.79-19.4,1.33,4.02,2.64,7.99,4.03,12.18-5.41-.21-8.75,2.2-11.42,6.67-3.19,5.34,1.37,13.04,6.11,14.83,5.8,2.18,11.72,1.06,17.61,1.22.23.05.45.1.68.16,0,0-.02-.02-.02-.02.01,2.17-.05,4.35.05,6.52.17,3.82.43,7.64.65,11.46Z"/>
  <g>
    <path class="cls-2" d="m179.21,55.93c2.93,2.05,4.39,4.85,4.39,8.39,0,2.45-.71,4.58-2.13,6.39-1.42,1.81-3.35,3.05-5.8,3.7,2.97.57,5.31,1.89,7.01,3.96,1.7,2.08,2.56,4.62,2.56,7.63,0,3.93-1.55,7.03-4.65,9.3-3.1,2.27-7.32,3.41-12.65,3.41h-21.82v-45.86h21.1c5.07,0,9.06,1.03,11.99,3.08Zm-7.9,14.05c1.11-.89,1.67-2.15,1.67-3.77s-.56-2.79-1.67-3.67c-1.11-.87-2.65-1.29-4.62-1.24h-10.22v10.02h10.22c1.97,0,3.51-.45,4.62-1.34Zm1.15,18.8c1.4-.98,2.1-2.35,2.1-4.1s-.7-2.97-2.1-3.93c-1.4-.96-3.32-1.42-5.77-1.38h-10.22v10.88h10.22c2.45,0,4.37-.49,5.77-1.47Z"/>
    <path class="cls-2" d="m218.36,65.37c2.86,1.49,5.08,3.58,6.65,6.29,1.57,2.71,2.36,5.85,2.36,9.44s-.79,6.67-2.36,9.4c-1.57,2.73-3.79,4.85-6.65,6.36-2.86,1.51-6.15,2.26-9.86,2.26s-7.07-.75-9.93-2.26c-2.86-1.51-5.08-3.63-6.65-6.36-1.57-2.73-2.36-5.86-2.36-9.4s.79-6.73,2.36-9.44c1.57-2.71,3.79-4.8,6.65-6.29,2.86-1.48,6.17-2.23,9.93-2.23s7,.74,9.86,2.23Zm-16.25,8.85c-1.64,1.79-2.46,4.13-2.46,7.01s.82,5.22,2.46,7.01c1.64,1.79,3.77,2.69,6.39,2.69s4.68-.9,6.32-2.69c1.64-1.79,2.46-4.13,2.46-7.01s-.82-5.22-2.46-7.01c-1.64-1.79-3.75-2.69-6.32-2.69s-4.75.9-6.39,2.69Z"/>
    <path class="cls-2" d="m259.84,65.37c2.86,1.49,5.08,3.58,6.65,6.29,1.57,2.71,2.36,5.85,2.36,9.44s-.79,6.67-2.36,9.4c-1.57,2.73-3.79,4.85-6.65,6.36-2.86,1.51-6.15,2.26-9.86,2.26s-7.07-.75-9.93-2.26c-2.86-1.51-5.08-3.63-6.65-6.36-1.57-2.73-2.36-5.86-2.36-9.4s.79-6.73,2.36-9.44c1.57-2.71,3.79-4.8,6.65-6.29,2.86-1.48,6.17-2.23,9.93-2.23s7,.74,9.86,2.23Zm-16.25,8.85c-1.64,1.79-2.46,4.13-2.46,7.01s.82,5.22,2.46,7.01c1.64,1.79,3.77,2.69,6.39,2.69s4.68-.9,6.32-2.69c1.64-1.79,2.46-4.13,2.46-7.01s-.82-5.22-2.46-7.01c-1.64-1.79-3.75-2.69-6.32-2.69s-4.75.9-6.39,2.69Z"/>
    <path class="cls-2" d="m298.98,98.72l-8.52-14.35-4.52,4.78v9.57h-10.09v-48.62h10.09v26.73l12.91-13.3h11.47l-12.91,13.56,13.5,21.62h-11.92Z"/>
    <path class="cls-2" d="m329.97,71.72c-2.53,0-4.6.86-6.19,2.59-1.59,1.73-2.39,4.01-2.39,6.85s.79,5.14,2.36,6.91c1.57,1.77,3.58,2.65,6.03,2.65,3.67,0,6.4-1.38,8.19-4.13l6.94,4.72c-1.49,2.49-3.57,4.41-6.26,5.77-2.69,1.35-5.82,2.03-9.4,2.03s-6.66-.74-9.37-2.23c-2.71-1.48-4.82-3.58-6.32-6.29-1.51-2.71-2.26-5.83-2.26-9.37s.75-6.74,2.26-9.47c1.51-2.73,3.62-4.85,6.35-6.36,2.73-1.51,5.89-2.26,9.47-2.26,3.36,0,6.36.65,8.98,1.93,2.62,1.29,4.72,3.11,6.29,5.47l-6.81,4.91c-2.01-2.49-4.63-3.73-7.86-3.73Z"/>
    <path class="cls-2" d="m370.73,98.72v-4.13c-1.18,1.49-2.71,2.62-4.59,3.41s-4.04,1.18-6.49,1.18c-3.71,0-6.66-1.02-8.84-3.05-2.18-2.03-3.28-4.69-3.28-7.96s1.17-5.91,3.5-7.76c2.34-1.86,5.65-2.81,9.93-2.85h9.7v-.66c0-1.88-.62-3.33-1.87-4.36-1.25-1.03-3.07-1.54-5.47-1.54-3.28,0-6.77,1.03-10.48,3.08l-3.15-6.95c2.79-1.4,5.42-2.42,7.86-3.08,2.45-.65,5.13-.98,8.06-.98,4.72,0,8.38,1.11,10.97,3.34,2.6,2.23,3.92,5.33,3.96,9.3l.07,23h-9.89Zm-2.82-8.26c1.53-1,2.45-2.27,2.75-3.8v-3.15h-7.93c-1.97,0-3.42.32-4.36.95-.94.63-1.41,1.65-1.41,3.05s.49,2.44,1.47,3.24c.98.81,2.33,1.21,4.03,1.21,2.1,0,3.91-.5,5.44-1.51Z"/>
    <path class="cls-2" d="m404.21,64.85c1.97-1.14,4.26-1.73,6.88-1.77v9.5c-.35-.04-.87-.07-1.57-.07-3.1,0-5.56.84-7.37,2.52-1.81,1.68-2.72,3.92-2.72,6.72v16.97h-10.09v-35.25h10.09v6.36c1.22-2.18,2.82-3.84,4.78-4.98Z"/>
    <path class="cls-2" d="m444.67,68.06c2.95,3.28,4.42,7.84,4.42,13.69,0,1.05-.02,1.86-.07,2.42h-25.29c.57,2.23,1.66,3.96,3.28,5.21,1.62,1.25,3.56,1.87,5.83,1.87,1.66,0,3.25-.32,4.78-.95,1.53-.63,2.9-1.56,4.13-2.78l5.31,5.37c-1.79,2.01-3.96,3.55-6.52,4.62-2.55,1.07-5.41,1.6-8.55,1.6-3.71,0-6.96-.74-9.73-2.23-2.77-1.48-4.91-3.58-6.42-6.29-1.51-2.71-2.26-5.83-2.26-9.37s.76-6.74,2.29-9.47c1.53-2.73,3.67-4.85,6.42-6.36,2.75-1.51,5.9-2.26,9.43-2.26,5.68,0,9.99,1.64,12.94,4.91Zm-5.08,10.16c-.09-2.31-.83-4.17-2.23-5.57-1.4-1.4-3.25-2.1-5.57-2.1-2.19,0-4.01.69-5.47,2.06-1.46,1.38-2.39,3.24-2.78,5.6h16.05Z"/>
  </g>
</svg>